<?xml version="1.0" encoding="UTF-8" standalone="no"?>
<!-- Created with Inkscape (http://www.inkscape.org/) -->

<svg
   width="256mm"
   height="256mm"
   viewBox="0 0 256 256"
   version="1.1"
   id="svg1"
   xml:space="preserve"
   xmlns:xlink="http://www.w3.org/1999/xlink"
   xmlns="http://www.w3.org/2000/svg"
   xmlns:svg="http://www.w3.org/2000/svg"><defs
     id="defs1"><linearGradient
       id="linearGradient4"><stop
         style="stop-color:#ea2afb;stop-opacity:1;"
         offset="0"
         id="stop4" /><stop
         style="stop-color:#feb5ef;stop-opacity:1;"
         offset="1"
         id="stop5" /></linearGradient><linearGradient
       xlink:href="#linearGradient4"
       id="linearGradient5"
       x1="128.30109"
       y1="0.17291249"
       x2="128.30109"
       y2="256.08344"
       gradientUnits="userSpaceOnUse" /></defs><g
     id="layer1"><path
       style="opacity:1;fill:url(#linearGradient5);stroke:none;stroke-width:0.566;stroke-dasharray:none"
       id="rect1"
       width="255.91052"
       height="255.5647"
       x="0.34582499"
       y="0.34582493"
       d="M 45.33471,0.34582493 H 208.81514 A 47.441205,47.441205 45 0 1 256.25635,47.78703 V 210.0925 a 45.818018,45.818018 135 0 1 -45.81802,45.81802 l -166.228402,0 A 43.864103,43.864103 45 0 1 0.34582499,212.04642 V 45.33471 A 44.988885,44.988885 135 0 1 45.33471,0.34582493 Z"
       transform="matrix(0.99805643,0,0,1,6.7213552e-4,0)" /><path
       style="fill:#ffffff;stroke-width:0.264583"
       d="m 79.67558,79.923842 c 5.973196,-4.041569 23.12505,-11.801235 42.21512,-14.869884 17.20731,-2.766004 25.96146,-1.472259 46.7897,-3.161449 28.65748,-3.581974 38.607,-17.104229 38.607,-17.104229 0,0 0.58756,23.31518 -3.5988,49.433715 -4.8423,22.557535 -10.01162,34.605465 -11.89149,37.763195 -0.88768,1.49108 -4.61929,9.90841 -11.30175,18.97976 -6.68246,9.07134 -16.31576,18.79668 -27.44064,25.72284 -14.73828,9.07405 -30.79737,11.81897 -43.62772,12.58939 -36.036326,0.0401 -56.478065,-18.79144 -56.478065,-18.79144 0,0 22.565036,-26.18687 39.805193,-34.99191 11.888152,-8.34209 48.709882,-20.22842 60.118562,-26.07842 13.53095,-8.32904 15.58185,-11.511463 16.70554,-12.443266 3.11097,-2.579713 5.55075,-5.883327 5.55075,-5.883327 0,0 -9.23027,6.456061 -19.88033,11.191743 -10.75644,4.783 -23.16642,8.32156 -24.6324,8.55477 -29.5207,5.30698 -50.717394,16.46244 -63.777908,27.24137 -13.438514,11.09091 -19.49685,19.28092 -19.49685,19.28092 0,0 -1.399671,-22.28222 3.859163,-37.11211 0.649268,-3.21099 6.887493,-25.715234 28.474925,-40.321668 z"
       id="path1" /></g></svg>
